<?xml version="1.0" standalone="no"?><!DOCTYPE svg PUBLIC "-//W3C//DTD SVG 1.1//EN" "http://www.w3.org/Graphics/SVG/1.1/DTD/svg11.dtd"><svg t="1755232312326" class="icon" viewBox="0 0 2254 1024" version="1.1" xmlns="http://www.w3.org/2000/svg" p-id="6474" xmlns:xlink="http://www.w3.org/1999/xlink" width="440.234375" height="200"><path d="M1103.685678 851.30589c33.701901 36.165778 35.443728 89.318477 35.443729 89.318477s-52.899513-5.481013-86.601414-41.644447-35.446073-89.318477-35.446072-89.318477 52.901857 5.481013 86.603757 41.644447z" fill="#4BDB9B" p-id="6475"></path><path d="M1209.782432 907.754698c-36.165778 33.701901-89.318477 35.443728-89.318477 35.443729s5.481013-52.899513 41.644447-86.599069 89.318477-35.446073 89.318477-35.446073-5.481013 52.899513-41.644447 86.601413z" fill="#4BDB9B" p-id="6476"></path><path d="M1200.794321 1015.089251h-133.016546a13.604071 13.604071 0 0 1-12.232646-7.654195l-28.959347-59.529241a13.604071 13.604071 0 0 1 12.232646-19.556292h190.93524a13.604071 13.604071 0 0 1 12.23499 19.556292l-28.959347 59.529241a13.604071 13.604071 0 0 1-12.237335 7.654195z" fill="#3F3D56" p-id="6477"></path><path d="M1798.154418 178.332192m-110.754911 0a110.754911 110.754911 0 1 0 221.509822 0 110.754911 110.754911 0 1 0-221.509822 0Z" fill="#FFB8B8" p-id="6478"></path><path d="M1715.491457 233.709648s20.864421 157.303669-11.236311 174.956376 191.010259 19.263253 191.010259 19.263253-49.758128-136.436904-27.28785-178.168091z" fill="#FFB8B8" p-id="6479"></path><path d="M2058.183713 428.724l-18.555269 84.493873-39.234489 178.761202-1.172158 9.789868-13.54312 113.33366-9.006865 75.292428-6.038961 50.57395c-36.719037 18.871752-63.331723 31.899121-63.331723 31.899121s-2.288053-11.475432-5.978008-26.162577c-25.771077 7.729213-73.454484 20.545594-113.863476 23.105588 14.715278 16.400842 21.476288 31.810037 12.30532 43.182319-27.681695 34.278603-141.967148-37.532515-181.940096-64.311648a108.199606 108.199606 0 0 0-1.054943 19.366403L1586.185966 944.52531l3.024169-54.130279 5.108266-91.585431 6.416396-114.857466a120.586977 120.586977 0 0 1-5.075446-15.104434c-9.367891-33.315089-20.740172-99.842116-29.461032-155.627483a5443.836914 5443.836914 0 0 1-13.404804-90.910268l-0.225055-1.594136 169.33236-74.825909c12.033379 27.909094 68.226657 36.29706 68.226657 36.29706 46.553447-3.207026 83.047429-27.756713 83.047429-27.756713z" fill="#D0CDE1" p-id="6480"></path><path d="M1920.147985 940.774403s-7.168921 2.4545-18.824865 5.931122c-25.771077 7.729213-73.454484 20.545594-113.863476 23.105588-34.789664 2.229445-64.189743-3.132007-69.567606-25.829684-2.304464-9.759392 0.963514-17.786333 8.087893-24.383241 21.267644-19.715706 76.811546-26.779133 120.865951-29.203157 12.44129-0.679852 23.947198-0.99399 33.526077-1.115895 16.267216-0.210989 26.929169 0.121904 26.929169 0.121905l0.257875 0.99399z" fill="#FFB8B8" p-id="6481"></path><path d="M1706.018072 73.569355l-20.707352-8.291849s43.299535-47.669341 103.541448-43.524589l-16.944723-18.651386s41.417048-16.581354 79.069123 26.943235c19.790724 22.880534 42.690012 49.772194 56.966903 80.070147h22.177238l-9.255363 20.379147 32.396116 20.381492-33.251792-3.661823a113.886919 113.886919 0 0 1 0.902562 33.805051 43.737922 43.737922 0 0 1-16.016373 28.612388s-25.681992-53.159732-25.681993-61.449236v20.726106s-20.707352-18.65373-20.707352-31.087987l-11.294919 14.506633-5.649804-22.798482-69.654346 22.798482 11.294919-18.651386-43.299534 6.217129 16.944723-22.798483s-48.946994 26.943235-50.829481 49.741718c-1.882487 22.798483-16.208608 44.401364-16.208607 44.401364s-38.385846-106.579683 16.208607-137.667671z" fill="#2F2E41" p-id="6482"></path><path d="M2178.566734 817.165602c-11.280853 12.230302-39.232145 30.6496-73.119246 50.59036a1832.636977 1832.636977 0 0 1-39.717419 22.639069c-32.668057 18.116882-66.871642 36.069661-95.097218 50.57395-36.719037 18.871752-63.331723 31.899121-63.331723 31.899121s-2.288053-11.475432-5.978008-26.162577c-4.94182-19.652409-12.380338-45.060117-20.137683-56.310494-0.271941-0.391501-0.541537-0.75487-0.813478-1.115895-2.259922-2.965561-4.533909-4.698011-6.775076-4.698011l112.081794-69.478522 48.438278-30.030701-34.897503-83.302959-43.768398-104.495585 26.418108-84.055485 26.551734-84.493873h49.762817s16.478204 35.966511 37.546581 86.120829c3.148418 7.501814 6.399985 15.317767 9.714849 23.38925 43.346421 105.428623 97.385272 252.651729 73.121591 278.931523z" fill="#D0CDE1" p-id="6483"></path><path d="M1799.764964 1012.991087c-27.681695 34.280947-141.967148-37.532515-181.937752-64.309303-8.706793-5.830316-13.887734-9.517927-13.887734-9.517927l36.569001-48.768826 11.580926-15.439671s10.361881 5.497423 25.679648 14.445681c0.557947 0.328204 1.115895 0.661097 1.687908 0.99399 13.207882 7.755001 29.789236 17.891827 46.52297 29.203157 23.089178 15.61784 46.433886 33.434649 61.479713 50.215269 14.715278 16.398497 21.476288 31.807693 12.30532 43.17763z" fill="#FFB8B8" p-id="6484"></path><path d="M1677.769053 889.401041a71.965843 71.965843 0 0 0-12.199826 0.99399c-34.625562 5.947532-44.837407 37.29105-47.742015 58.286753a108.199606 108.199606 0 0 0-1.054943 19.368747l-30.588648-23.527565-11.147227-8.568479c-26.823675-9.353825-50.723986-25.965655-71.450093-45.559456a359.179837 359.179837 0 0 1-48.11945-57.067708 503.268591 503.268591 0 0 1-37.230098-63.859194 46.966046 46.966046 0 0 1-0.649376-39.836979l37.879474-84.418854 55.365734-123.381403q0.609522-4.402627 1.338605-8.61302c10.980781-62.956632 40.394926-90.910268 40.394926-90.910268h22.470278l15.031761 90.910268 18.677173 112.944503-13.088322 42.682979-30.241689 98.57384 28.90074 31.38806z" fill="#D0CDE1" p-id="6485"></path><path d="M1703.202548 626.25146l19.209333 22.41167a552.25075 552.25075 0 0 0 22.268667-4.754274l-5.518522-17.657396 13.491544 15.739744c81.324356-20.001712 182.129986-58.889242 182.129986-58.889242s-108.827883 7.977711-190.084254-9.775802c-35.952445-7.853462-72.943423 9.968036-87.696209 43.681658-8.575512 19.596146-7.227529 36.571345 23.185295 36.571345a200.879833 200.879833 0 0 0 30.654289-2.88351z" fill="#4BDB9B" p-id="6486"></path><path d="M2141.139714 994.616331v9.142836a20.090796 20.090796 0 0 1-1.369082 7.335368 20.620612 20.620612 0 0 1-1.460509 3.012447 20.238488 20.238488 0 0 1-17.394832 9.878952H1448.356538a20.238488 20.238488 0 0 1-17.394832-9.878952 20.611235 20.611235 0 0 1-1.462854-3.012447 20.090796 20.090796 0 0 1-1.369081-7.335368v-9.142836a20.222078 20.222078 0 0 1 20.226767-20.226767h38.765625v-4.261968a0.843954 0.843954 0 0 1 0.843954-0.843954h20.226767a0.843954 0.843954 0 0 1 0.843954 0.843954v4.261968h12.635869v-4.261968a0.843954 0.843954 0 0 1 0.843954-0.843954h20.226767a0.843954 0.843954 0 0 1 0.843954 0.843954v4.261968h12.652279v-4.261968a0.843954 0.843954 0 0 1 0.843954-0.843954h20.226767a0.843954 0.843954 0 0 1 0.843954 0.843954v4.261968h12.635868v-4.261968a0.843954 0.843954 0 0 1 0.843954-0.843954h20.224423a0.843954 0.843954 0 0 1 0.843954 0.843954v4.261968h12.635869v-4.261968a0.843954 0.843954 0 0 1 0.843954-0.843954h20.226767a0.843954 0.843954 0 0 1 0.843954 0.843954v4.261968h12.652278v-4.261968a0.843954 0.843954 0 0 1 0.843954-0.843954h20.226767a0.843954 0.843954 0 0 1 0.843954 0.843954v4.261968h12.635869v-4.261968a0.843954 0.843954 0 0 1 0.843954-0.843954h158.443007a0.843954 0.843954 0 0 1 0.843954 0.843954v4.261968h12.649935v-4.261968a0.843954 0.843954 0 0 1 0.843954-0.843954h20.226767a0.850987 0.850987 0 0 1 0.843954 0.843954v4.261968h12.635868v-4.261968a0.843954 0.843954 0 0 1 0.843955-0.843954h20.226766a0.843954 0.843954 0 0 1 0.843955 0.843954v4.261968h12.635868v-4.261968a0.843954 0.843954 0 0 1 0.843954-0.843954h20.226767a0.843954 0.843954 0 0 1 0.843954 0.843954v4.261968h12.649935v-4.261968a0.843954 0.843954 0 0 1 0.843954-0.843954h20.226767a0.839265 0.839265 0 0 1 0.827543 0.843954v4.261968h12.652279v-4.261968a0.843954 0.843954 0 0 1 0.843954-0.843954h20.226767a0.843954 0.843954 0 0 1 0.843954 0.843954v4.261968h12.635869v-4.261968a0.843954 0.843954 0 0 1 0.843954-0.843954h20.226767a0.843954 0.843954 0 0 1 0.843954 0.843954v4.261968h58.992392a20.222078 20.222078 0 0 1 20.226767 20.226767z" fill="#3F3D56" p-id="6487"></path><path d="M2086.988336 609.609154H1836.303488v-5.166875h-113.668897v5.166875H1470.918244a16.956445 16.956445 0 0 0-16.956444 16.956445v343.261924a16.956445 16.956445 0 0 0 16.956444 16.956445h616.067747a16.956445 16.956445 0 0 0 16.956445-16.956445V626.565599a16.956445 16.956445 0 0 0-16.956445-16.956445z" fill="#3F3D56" p-id="6488"></path><path d="M1767.399324 743.005478m-37.652075 0a37.652075 37.652075 0 1 0 75.30415 0 37.652075 37.652075 0 1 0-75.30415 0Z" fill="#D0CDE1" p-id="6489"></path><path d="M661.82647 388.465045m-54.817164 0a54.817164 54.817164 0 1 0 109.634328 0 54.817164 54.817164 0 1 0-109.634328 0Z" fill="#2F2E41" p-id="6490"></path><path d="M677.099695 335.157621a54.824197 54.824197 0 0 1 48.255421 80.832049 54.803098 54.803098 0 1 0-91.053271-60.21847 54.681193 54.681193 0 0 1 42.79785-20.613579z" fill="#2F2E41" p-id="6491"></path><path d="M559.396228 227.326073m-161.021755 0a161.021756 161.021756 0 1 0 322.043511 0 161.021756 161.021756 0 1 0-322.043511 0Z" fill="#2F2E41" p-id="6492"></path><path d="M433.018789 127.420661a160.993624 160.993624 0 0 1 223.155533-16.883771c-1.315162-1.251865-2.618602-2.513108-3.985339-3.729809a161.021756 161.021756 0 0 0-213.968155 240.686336c1.366737 1.219045 2.773327 2.363072 4.17054 3.523508a160.993624 160.993624 0 0 1-9.372579-223.596264z" fill="#2F2E41" p-id="6493"></path><path d="M558.031836 283.275542m-103.710239 0a103.710239 103.710239 0 1 0 207.420478 0 103.710239 103.710239 0 1 0-207.420478 0Z" fill="#A0616A" p-id="6494"></path><path d="M484.34292 316.02565s13.643925 125.542863-8.188699 139.189132 125.542863 32.750108 125.542863 32.750108-21.832624-136.460347 32.750108-171.93924z" fill="#A0616A" p-id="6495"></path><path d="M615.343353 433.379814s40.638735-18.977246-17.887138-12.216236-109.02715-19.16948-109.02715-19.16948-17.732414-17.739447-20.461199 1.364392 8.186355 54.585076-51.856291 60.042647-114.625379-10.91514-136.458003 30.021323-10.917484 218.335617-10.917484 218.335617 40.938807 147.377831 73.688916 169.210456 319.314727-8.186355 319.314726-8.186355L743.617345 725.402002v-171.93924s-10.91514-60.042646-87.33284-43.667592c0 0-49.125162-10.91514-46.396377-35.478893s5.45757-40.938807 5.457569-40.938808z" fill="#D0CDE1" p-id="6496"></path><path d="M353.255748 985.264851c1.687908-7.349434 2.815525-11.508252 2.815525-11.508252l-0.872086-5.978009-8.9928-61.057735-3.779039-25.754667c32.743075-13.643925 40.934119-76.420045 40.934119-76.420045l1.235455-0.738459 5.588851-3.342996v-0.016411l20.060321-12.033379 0.407911-0.241464 8.101959 5.391929 16.461794 10.98078a193.574941 193.574941 0 0 0 152.434523 34.925635 167.808554 167.808554 0 0 0 35.875083-10.361881l39.701008-13.238358 1.235455-0.407911 1.219045 0.182856 23.2861 3.523509 0.421977 0.075018 1.927029 0.286007-5.391929 37.274639-7.815953 54.177166c20.648744 10.933894 39.009435 31.477144 55.063317 56.795767q5.330977 8.404376 10.331405 17.486261a427.603417 427.603417 0 0 1 12.42488 24.322288c0.482929 0.99399 0.949448 2.004391 1.415967 3.012448a533.965078 533.965078 0 0 1 4.489367 9.881296H346.025874c0.541537-3.32893 1.085419-6.507824 1.610546-9.564814a2.332595 2.332595 0 0 0 0.060952-0.316482c0.196923-1.024467 0.375091-2.016113 0.541538-3.012448a578.155453 578.155453 0 0 1 5.016838-24.322288z" fill="#2F2E41" p-id="6497"></path><path d="M336.965089 460.672352s30.021323 54.585076 19.106184 122.814078 32.750108 237.439456 32.750108 237.439456l32.750108-8.186355s-21.834968-141.917917-16.375054-174.670369 5.45757-161.021756-21.834968-177.394466-46.394033 0-46.394033 0zM654.362165 517.395446l11.470743 302.166048 21.834968 13.646269s31.385716-331.596603 15.010662-331.596604h-33.319777a15.017695 15.017695 0 0 0-14.996596 15.784287z" fill="#2F2E41" p-id="6498"></path><path d="M403.832043 800.457655m-13.64627 0a13.646269 13.646269 0 1 0 27.292539 0 13.646269 13.646269 0 1 0-27.292539 0Z" fill="#4BDB9B" p-id="6499"></path><path d="M676.750392 814.103924m-13.646269 0a13.646269 13.646269 0 1 0 27.292538 0 13.646269 13.646269 0 1 0-27.292538 0Z" fill="#4BDB9B" p-id="6500"></path><path d="M469.332259 153.637157v103.710239h24.017527l30.565205-32.750108-4.093177 32.750108h106.167083l-6.550022-32.750108 13.100043 32.750108h16.918936V153.637157H469.332259z" fill="#2F2E41" p-id="6501"></path><path d="M444.768506 261.440574a15.010662 8.188699 90 1 0 16.377398 0 15.010662 8.188699 90 1 0-16.377398 0Z" fill="#A0616A" p-id="6502"></path><path d="M654.915424 261.440574a15.010662 8.188699 90 1 0 16.377398 0 15.010662 8.188699 90 1 0-16.377398 0Z" fill="#A0616A" p-id="6503"></path><path d="M719.053592 812.739531s-124.17847-23.199361-132.36717 17.739447 137.824739 23.197016 137.82474 23.197016z" fill="#A0616A" p-id="6504"></path><path d="M716.324807 531.632483s297.482103 237.439456 242.897026 294.750973-262.000865 40.938807-262.000865 40.938807l13.643925-68.229001 120.085293-13.646269-60.042647-60.042646-54.582732 5.45757z" fill="#D0CDE1" p-id="6505"></path><path d="M276.924787 927.36491l38.207678 30.021323s27.292538 84.6064 68.229002 60.042647-38.207678-111.896594-38.207678-111.896594l-46.396378-16.375054z" fill="#A0616A" p-id="6506"></path><path d="M315.132465 487.96489l-38.104528 11.466055S12.190448 695.383023 1.275308 749.970444s51.856292 84.6064 51.856292 84.6064l237.437112 111.894249 24.563753-65.500216-111.896593-57.313862s8.186355-16.375054-24.563754-19.103839-38.207678-38.207678-38.207678-38.207678 65.500216-100.981454 100.97911-79.146485 46.396377 38.207678 46.396377 38.207678z" fill="#D0CDE1" p-id="6507"></path><path d="M858.63188 994.616331v9.142836a20.090796 20.090796 0 0 1-1.371425 7.335368 20.606546 20.606546 0 0 1-1.460509 3.012447 20.238488 20.238488 0 0 1-17.394832 9.878952H165.848705a20.238488 20.238488 0 0 1-17.394832-9.878952 20.615923 20.615923 0 0 1-1.46051-3.012447 20.093141 20.093141 0 0 1-1.371425-7.335368v-9.142836a20.222078 20.222078 0 0 1 20.226767-20.226767h38.767969v-4.261968a0.843954 0.843954 0 0 1 0.843955-0.843954h20.226766a0.843954 0.843954 0 0 1 0.843955 0.843954v4.261968h12.635868v-4.261968a0.843954 0.843954 0 0 1 0.843954-0.843954h20.226767a0.843954 0.843954 0 0 1 0.843954 0.843954v4.261968h12.649935v-4.261968a0.843954 0.843954 0 0 1 0.843954-0.843954h20.226767a0.843954 0.843954 0 0 1 0.843954 0.843954v4.261968h12.635868v-4.261968a0.843954 0.843954 0 0 1 0.843954-0.843954h20.226767a0.843954 0.843954 0 0 1 0.843954 0.843954v4.261968h12.635869v-4.261968a0.843954 0.843954 0 0 1 0.843954-0.843954h20.226767a0.843954 0.843954 0 0 1 0.843954 0.843954v4.261968h12.649934v-4.261968a0.843954 0.843954 0 0 1 0.843954-0.843954h20.226767a0.843954 0.843954 0 0 1 0.843954 0.843954v4.261968h12.635869v-4.261968a0.843954 0.843954 0 0 1 0.843954-0.843954h158.443007a0.843954 0.843954 0 0 1 0.843954 0.843954v4.261968h12.652279v-4.261968a0.843954 0.843954 0 0 1 0.843954-0.843954h20.224423a0.850987 0.850987 0 0 1 0.843954 0.843954v4.261968h12.635868v-4.261968a0.843954 0.843954 0 0 1 0.843954-0.843954h20.226767a0.843954 0.843954 0 0 1 0.843954 0.843954v4.261968h12.635869v-4.261968a0.843954 0.843954 0 0 1 0.843954-0.843954h20.226767a0.843954 0.843954 0 0 1 0.843954 0.843954v4.261968h12.652279v-4.261968a0.843954 0.843954 0 0 1 0.843954-0.843954h20.226767a0.839265 0.839265 0 0 1 0.827544 0.843954v4.261968h12.652278v-4.261968a0.843954 0.843954 0 0 1 0.843955-0.843954h20.224422a0.843954 0.843954 0 0 1 0.843954 0.843954v4.261968h12.635869v-4.261968a0.843954 0.843954 0 0 1 0.843954-0.843954h20.226767a0.843954 0.843954 0 0 1 0.843954 0.843954v4.261968h58.994737a20.222078 20.222078 0 0 1 20.226766 20.226767z" fill="#3F3D56" p-id="6508"></path><path d="M804.475814 609.602121H553.793311v-5.166875h-113.668897v5.166875H188.412755a16.956445 16.956445 0 0 0-16.958789 16.956445V969.82049a16.956445 16.956445 0 0 0 16.958789 16.956445H804.475814a16.956445 16.956445 0 0 0 16.956445-16.956445V626.558566a16.956445 16.956445 0 0 0-16.956445-16.956445z" fill="#3F3D56" p-id="6509"></path><path d="M484.886802 742.998446m-37.652075 0a37.652075 37.652075 0 1 0 75.30415 0 37.652075 37.652075 0 1 0-75.30415 0Z" fill="#D0CDE1" p-id="6510"></path><path d="M27.768435 1012.744934h2227.101128v4.688634h-2227.101128z" fill="#3F3D56" p-id="6511"></path></svg>