<?xml version="1.0" standalone="no"?><!DOCTYPE svg PUBLIC "-//W3C//DTD SVG 1.1//EN" "http://www.w3.org/Graphics/SVG/1.1/DTD/svg11.dtd"><svg t="1755233003783" class="icon" viewBox="0 0 1108 1024" version="1.1" xmlns="http://www.w3.org/2000/svg" p-id="4904" xmlns:xlink="http://www.w3.org/1999/xlink" width="216.40625" height="200"><path d="M442.931219 541.206104a56.710882 56.710882 0 0 0 80.202 0l398.795351-228.662705a56.710882 56.710882 0 0 0 0-80.202L536.104746 16.65022a56.710882 56.710882 0 0 0-80.202 0L57.107395 245.312925a56.710882 56.710882 0 0 0 0 80.202001z" fill="#0068B7" p-id="4905"></path><path d="M26.181377 524.991696l381.315428 231.826492a109.150651 109.150651 0 0 0 72.134343 27.050379 109.546125 109.546125 0 0 0 72.371628-27.208568l120.303-74.665373a248.357279 248.357279 0 0 1-2.847408-37.569971 248.357279 248.357279 0 0 1 19.931858-97.681924L486.591479 672.661454l-4.350207 4.271112a3.71745 3.71745 0 0 1-5.299343 0l-4.508396-4.429301L81.23127 434.586482a52.993432 52.993432 0 0 0-72.7671 17.717208 52.835243 52.835243 0 0 0 17.717207 72.688006z" fill="#0068B7" p-id="4906"></path><path d="M706.949244 775.959099l-220.357765 136.754693-4.271112 4.350207a3.954734 3.954734 0 0 1-5.378438 0l-4.508396-4.508396-391.202263-237.916782a52.993432 52.993432 0 0 0-72.7671 17.717207 52.914338 52.914338 0 0 0 17.717207 72.767101l381.236333 231.826492a109.546125 109.546125 0 0 0 72.213438 27.050379 109.229746 109.229746 0 0 0 72.371628-27.287663l230.877356-143.319551a251.521066 251.521066 0 0 1-75.930888-77.433687z m389.857653 31.63787l-81.783894-81.783894a162.302273 162.302273 0 0 0 24.36116-85.659532 162.618652 162.618652 0 0 0-162.618652-162.539557A162.618652 162.618652 0 0 0 714.146859 640.153543a162.618652 162.618652 0 0 0 162.618652 162.618651 161.827705 161.827705 0 0 0 83.523977-23.095645l82.258462 82.179367a38.281823 38.281823 0 0 0 54.258947 0 38.281823 38.281823 0 0 0 0-54.417136z m-220.041386-69.128746a98.393776 98.393776 0 0 1-98.314681-98.31468 98.47287 98.47287 0 0 1 98.314681-98.314681 98.393776 98.393776 0 0 1 98.314681 98.314681 98.393776 98.393776 0 0 1-98.314681 98.156491z" fill="#0068B7" p-id="4907"></path></svg>